<svg width="141" height="30" viewBox="0 0 141 30" fill="none" xmlns="http://www.w3.org/2000/svg">
<path d="M0.757812 0.664062V29H6.43555V17.1172L14.6973 29H21.623L11.8848 15.0605L20.2695 0.664062H13.6953L6.43555 13.1973V0.664062H0.757812ZM24.1016 29H29.7969V16.4668L37.9355 29H44.8965L38.3047 18.7344C39.9219 18.1016 40.7129 17.5215 41.6973 16.1152C42.8926 14.4277 43.4902 12.6348 43.4902 10.7188V9.98047C43.4902 6.85156 42.4883 5.28711 40.7656 3.54688C39.043 1.85938 36.4941 0.664062 33.3477 0.664062H24.1016V29ZM33.8926 14.1465H31.9941V14.1289H29.7969V6.30664H32.9961C34.3672 6.30664 35.7559 6.72852 36.5117 7.43164C37.25 8.22266 37.6367 9.13672 37.6367 10.1738C37.6367 12.3184 35.9668 14.1465 33.8926 14.1465ZM46.3203 0.664062L55.0918 16.8535V29H60.752V16.8535L69.541 0.664062H63.0898L57.9219 10.4902L52.7539 0.664062H46.3203ZM72.0195 29H77.7148V20.4922H81.9688C84.6934 20.4922 87.0312 19.5254 89 17.5918C90.9512 15.6934 91.9355 13.373 91.9355 10.5957C91.9355 7.85352 90.9512 5.51562 89 3.56445C87.0664 1.63086 84.7109 0.664062 81.9688 0.664062H72.0195V20.4922V29ZM86.2402 10.5957C86.2402 12.916 84.2891 14.8672 81.9688 14.8672L77.7148 14.8496V6.30664H81.9688C84.2891 6.30664 86.2402 8.29297 86.2402 10.5957ZM93.3594 0.664062V6.30664H100.338V29H106.051V6.30664H113.012V0.664062H93.3594ZM126.055 0.435547C122.1 0.435547 118.707 1.85938 115.895 4.67188C113.082 7.51953 111.676 10.9121 111.676 14.8496C111.676 18.8223 113.082 22.1973 115.895 25.0098C118.689 27.7871 122.082 29.1934 126.055 29.1934C130.01 29.1934 133.402 27.8047 136.215 25.0098C139.027 22.2148 140.451 18.8223 140.451 14.8496C140.451 10.8945 139.027 7.50195 136.215 4.67188C133.385 1.85938 129.992 0.435547 126.055 0.435547ZM126.037 6.18359C128.41 6.18359 130.432 7.02734 132.119 8.71484C133.824 10.4199 134.668 12.459 134.668 14.832C134.668 17.2227 133.824 19.2441 132.119 20.9316C130.432 22.6016 128.393 23.4453 126.037 23.4453C123.646 23.4453 121.625 22.6016 119.938 20.9316C118.25 19.2441 117.406 17.2051 117.406 14.832C117.406 12.4766 118.25 10.4375 119.938 8.73242C121.607 7.04492 123.646 6.18359 126.037 6.18359Z" fill="black"/>
</svg>
